<svg width="119" height="177" viewBox="0 0 119 177" fill="none" xmlns="http://www.w3.org/2000/svg">
<path d="M32.8902 97.0851C32.7564 97.0543 23.5375 95.4959 19.6565 94.8562C18.928 94.7167 18.3571 95.4874 18.7098 96.1606C19.3862 97.3877 20.4367 98.3343 21.7582 98.8359C27.3116 100.904 42.5908 106.62 46.0764 108.494C46.0764 108.494 49.2961 110.053 50.9013 110.422" stroke="#F59F80" stroke-width="2" stroke-miterlimit="10" stroke-linecap="round" stroke-linejoin="round"/>
<path d="M50.8906 105.43C50.8906 105.43 35.2894 98.9061 33.3784 97.5358C31.8524 96.4515 23.9028 85.5434 20.8503 81.2884C20.3638 80.5844 20.8316 79.649 21.7101 79.6257L21.9035 79.642C22.6627 79.6476 23.4346 79.9663 23.9969 80.4622C26.8519 83.1211 35.7568 91.4581 37.552 92.3506C39.7629 93.3953 49.9548 96.3617 49.9548 96.3617" stroke="#F59F80" stroke-width="2" stroke-miterlimit="10" stroke-linecap="round" stroke-linejoin="round"/>
<path d="M39.9172 105.751L27.0645 102.228C26.1553 102.385 25.9533 103.636 26.7542 104.074L37.5884 108.908C38.9388 109.529 40.4409 109.734 41.8527 110.087C49.0293 112.077 52.0863 113.486 68.9251 113.134C87.2225 112.807 92.4592 124.246 93.0461 127.708C93.6184 131.11 95.5508 157.831 95.5508 157.831C95.5508 157.831 117.783 156.803 117.754 156.683C116.264 150.279 114.641 143.844 113.032 137.468C111.669 132.108 110.291 126.688 108.809 121.357C107.197 115.488 106.007 108.758 102.961 103.489C100.46 99.164 89.7514 86.775 87.0719 84.5794C82.0383 80.4886 76.157 76.2872 70.1299 73.8284C66.7746 72.4921 57.9028 65.8544 54.0722 64.3805C50.2867 62.8324 49.6637 64.6907 50.225 67.5264C50.8008 70.4218 66.1239 82.83 66.1239 82.83C66.1239 82.83 70.8371 85.8603 64.7856 91.3744C58.9275 96.9048 54.821 92.2099 54.821 92.2099C54.821 92.2099 50.3763 86.9014 49.1155 84.0456L49.6917 67.1499C49.6389 66.151 49.2283 65.2389 48.5629 64.5782L48.223 64.218C47.8089 63.8126 47.048 64.0603 46.9994 64.6412C46.8467 67.3971 44.9565 73.9255 43.6561 76.8965C41.933 80.7288 41.2487 82.8548 42.415 84.2792C43.5814 85.7036 47.8452 95.735 47.8452 95.735" stroke="#F59F80" stroke-width="2" stroke-miterlimit="10" stroke-linecap="round" stroke-linejoin="round"/>
<path d="M31.0989 23.2871C31.0989 23.2871 34.1852 46.6927 44.8101 58.2167C56.4839 70.9407 55.1525 104.776 55.1525 104.776" stroke="#F59F80" stroke-width="2" stroke-miterlimit="10" stroke-linecap="round" stroke-linejoin="round"/>
<path d="M39.8459 24.2013C39.8459 24.2013 31.3272 24.7494 33.2445 33.9587C33.2445 33.9587 41.4701 32.7229 39.8459 24.2013Z" stroke="#F59F80" stroke-width="2" stroke-miterlimit="10" stroke-linecap="round" stroke-linejoin="round"/>
<path d="M23.2241 14.5108C23.2241 14.5108 21.6635 22.9195 31.0989 23.2872C31.0393 23.3017 31.8697 15.0069 23.2241 14.5108Z" stroke="#F59F80" stroke-width="2" stroke-miterlimit="10" stroke-linecap="round" stroke-linejoin="round"/>
<path d="M43.6101 37.6418C43.6101 37.6418 35.2183 39.2341 38.3285 48.1541C38.2544 48.1089 46.2935 45.8434 43.6101 37.6418Z" stroke="#F59F80" stroke-width="2" stroke-miterlimit="10" stroke-linecap="round" stroke-linejoin="round"/>
<path d="M52.11 50.8191C52.11 50.8191 43.7906 52.7099 47.1104 61.4527C47.1845 61.498 55.1061 59.0081 52.11 50.8191Z" stroke="#F59F80" stroke-width="2" stroke-miterlimit="10" stroke-linecap="round" stroke-linejoin="round"/>
<path d="M25.0248 36.5208C25.0248 36.5208 32.6729 32.6429 35.6493 41.5322C35.6638 41.5919 27.9612 44.7242 25.0248 36.5208Z" stroke="#F59F80" stroke-width="2" stroke-miterlimit="10" stroke-linecap="round" stroke-linejoin="round"/>
<path d="M31.0407 53.7782C31.0407 53.7782 37.2439 47.848 42.6402 55.5182C42.6547 55.5779 36.2036 60.7463 31.0407 53.7782Z" stroke="#F59F80" stroke-width="2" stroke-miterlimit="10" stroke-linecap="round" stroke-linejoin="round"/>
<path d="M18.9354 47.6084L15.9095 52.5786" stroke="#F59F80" stroke-width="2" stroke-miterlimit="10" stroke-linecap="round" stroke-linejoin="round"/>
<path d="M19.9056 51.6096L14.9393 48.5774" stroke="#F59F80" stroke-width="2" stroke-miterlimit="10" stroke-linecap="round" stroke-linejoin="round"/>
<path d="M16.7099 46.504L18.4331 53.6106" stroke="#F59F80" stroke-width="2" stroke-miterlimit="10" stroke-linecap="round" stroke-linejoin="round"/>
<path d="M21.1429 49.1597L13.9857 50.8951" stroke="#F59F80" stroke-width="2" stroke-miterlimit="10" stroke-linecap="round" stroke-linejoin="round"/>
<path d="M46.3031 15.933L43.2627 20.8434" stroke="#F59F80" stroke-width="2" stroke-miterlimit="10" stroke-linecap="round" stroke-linejoin="round"/>
<path d="M47.2588 19.8744L42.307 16.902" stroke="#F59F80" stroke-width="2" stroke-miterlimit="10" stroke-linecap="round" stroke-linejoin="round"/>
<path d="M44.0632 14.7689L45.8008 21.9352" stroke="#F59F80" stroke-width="2" stroke-miterlimit="10" stroke-linecap="round" stroke-linejoin="round"/>
<path d="M48.5106 17.4842L41.3534 19.2197" stroke="#F59F80" stroke-width="2" stroke-miterlimit="10" stroke-linecap="round" stroke-linejoin="round"/>
<path d="M70.4648 59.5835L67.4389 64.5537" stroke="#F59F80" stroke-width="2" stroke-miterlimit="10" stroke-linecap="round" stroke-linejoin="round"/>
<path d="M71.435 63.5847L66.4687 60.5525" stroke="#F59F80" stroke-width="2" stroke-miterlimit="10" stroke-linecap="round" stroke-linejoin="round"/>
<path d="M68.2394 58.4791L69.9626 65.5857" stroke="#F59F80" stroke-width="2" stroke-miterlimit="10" stroke-linecap="round" stroke-linejoin="round"/>
<path d="M72.6723 61.1348L65.5151 62.8702" stroke="#F59F80" stroke-width="2" stroke-miterlimit="10" stroke-linecap="round" stroke-linejoin="round"/>
</svg>
