<svg width="160" height="100" viewBox="0 0 160 100" fill="none" xmlns="http://www.w3.org/2000/svg">
<path d="M84.1304 77.3208C75.6972 77.3208 72.0076 78.1641 65.3664 81.6428C59.8848 84.489 53.7707 86.2811 47.5512 86.9136C44.5996 87.2298 41.3317 87.4407 38.4855 86.5974C36.1664 85.9649 33.1093 85.3324 34.6905 82.3807C36.1664 79.8508 40.5938 79.1129 43.2292 78.2695C46.4971 77.2154 49.765 76.1612 53.0328 74.8962C56.0899 73.7367 59.1469 72.7879 62.0986 71.3121C65.0502 69.8363 68.0018 68.3605 70.9535 66.6738C76.5405 63.6168 81.3896 59.0839 86.1333 54.8673C88.4524 52.8644 91.6149 51.5994 94.4611 50.5453C97.4127 49.3857 100.47 48.5424 103.527 48.0153C109.957 46.7503 116.282 46.9611 122.712 47.8045C136.627 49.3857 157.289 51.9157 158.87 52.3373C158.87 52.3373 156.024 83.3295 153.81 82.697C137.576 78.0587 143.901 78.902 127.667 73.7367C124.188 72.6825 119.655 73.9475 116.282 76.3721C101.84 87.1244 96.8857 96.6118 78.5434 98.2985C71.6914 98.5093 64.7339 97.5606 57.8819 96.6118C39.118 94.1873 29.2089 89.8652 10.6558 86.3865C8.65291 85.9649 5.80669 85.0161 4.01463 84.0674C1.37924 82.4862 0.430505 79.8508 6.86085 80.2724C19.5107 81.0103 21.0919 82.8024 34.2689 83.5403" stroke="#F59F80" stroke-width="2" stroke-miterlimit="10" stroke-linecap="round" stroke-linejoin="round"/>
<path d="M34.2689 82.4861C30.2631 81.9591 25.3085 80.2724 21.4082 79.0074C17.824 77.8479 14.2399 76.6883 10.7612 75.3179L5.9121 73.5258C4.85795 73.1042 4.33087 72.05 4.64712 70.9959C4.96336 69.8363 6.22835 69.2038 7.38792 69.6255C12.8695 71.7338 29.9468 76.5829 45.2321 77.7424" stroke="#F59F80" stroke-width="2" stroke-miterlimit="10" stroke-linecap="round" stroke-linejoin="round"/>
<path d="M9.07457 70.1524C9.07457 70.1524 9.49623 66.99 12.7641 67.6225C16.032 68.2549 37.1151 74.3691 51.1353 75.634" stroke="#F59F80" stroke-width="2" stroke-miterlimit="10" stroke-linecap="round" stroke-linejoin="round"/>
<path d="M24.8869 70.6796C24.8869 70.6796 25.414 68.1496 28.7873 68.4658C32.266 68.7821 48.2891 72.05 56.3007 73.4204" stroke="#F59F80" stroke-width="2" stroke-miterlimit="10" stroke-linecap="round" stroke-linejoin="round"/>
<path d="M62.0986 44.5366C62.0986 44.5366 63.469 25.9835 69.056 18.499C71.2697 15.4419 74.4322 13.439 76.6459 12.5957C76.6459 12.5957 79.0704 17.7611 78.5434 22.3993C77.2784 35.1546 68.2126 45.4853 55.4574 45.4853C42.7021 45.4853 33.1093 35.1546 32.3714 22.3993C32.1606 19.5531 33.1093 16.0744 33.1093 16.0744C33.2147 15.3365 33.4255 14.704 33.7418 13.9661C33.7418 13.9661 51.6624 17.234 50.5029 44.3258" stroke="#F59F80" stroke-width="2" stroke-miterlimit="10" stroke-linecap="round" stroke-linejoin="round"/>
<path d="M44.1779 20.9235C44.1779 20.9235 44.1779 10.4874 55.879 1C55.879 1 66.3152 7.00868 66.8423 22.5048" stroke="#F59F80" stroke-width="2" stroke-miterlimit="10" stroke-linecap="round" stroke-linejoin="round"/>
<path d="M64.8394 12.174C66.526 9.43321 69.4776 7.64114 72.8509 7.21948C74.5376 9.32779 74.643 11.5415 74.4322 13.8607" stroke="#F59F80" stroke-width="2" stroke-miterlimit="10" stroke-linecap="round" stroke-linejoin="round"/>
<path d="M46.1808 13.0173C44.4942 10.2765 41.5425 8.48441 38.1692 8.06274C36.4826 10.1711 36.3772 12.5956 36.588 15.0202" stroke="#F59F80" stroke-width="2" stroke-miterlimit="10" stroke-linecap="round" stroke-linejoin="round"/>
<path d="M61.9931 44.8528C82.3383 46.5394 83.1816 27.9863 83.1816 27.0376C82.2329 26.8267 63.7852 24.5076 61.9931 44.8528Z" stroke="#F59F80" stroke-width="2" stroke-miterlimit="10" stroke-linecap="round" stroke-linejoin="round"/>
<path d="M50.5029 45.1692C30.2631 46.8558 29.4198 28.3027 29.3143 27.354C30.3685 27.2485 48.8162 24.824 50.5029 45.1692ZM50.5029 45.1692C50.6083 45.1692 50.6083 45.1692 50.5029 45.1692Z" stroke="#F59F80" stroke-width="2" stroke-miterlimit="10" stroke-linecap="round" stroke-linejoin="round"/>
</svg>
