<svg width="35" height="35" viewBox="0 0 35 35" fill="none" xmlns="http://www.w3.org/2000/svg">
<circle cx="17.5" cy="17.5" r="17.5" fill="#F59F80"/>
<path d="M27.87 23.9071L27.7706 23.6077C27.5353 22.9084 26.7641 22.179 26.0556 21.9868L23.4333 21.2705C22.7222 21.077 21.7078 21.3371 21.1875 21.8574L20.2384 22.8064C16.7894 21.8744 14.0847 19.1698 13.154 15.7214L14.1031 14.7723C14.6234 14.252 14.8835 13.2389 14.69 12.5278L13.975 9.90422C13.7815 9.1944 13.0508 8.42316 12.3527 8.19046L12.0534 8.08981C11.354 7.85711 10.3566 8.09245 9.83638 8.6127L8.41673 10.0336C8.16311 10.2859 8.00102 11.0075 8.00102 11.0101C7.95137 15.5174 9.71871 19.8599 12.907 23.0482C16.0874 26.2286 20.4137 27.9934 24.9078 27.9555C24.9313 27.9555 25.6738 27.796 25.9274 27.5437L27.3471 26.124C27.8673 25.6038 28.1026 24.6065 27.87 23.9071Z" fill="white"/>
</svg>
