<svg width="157" height="160" viewBox="0 0 157 160" fill="none" xmlns="http://www.w3.org/2000/svg">
<path d="M107.581 78.5654C107.937 78.0172 113.09 67.6124 114.057 64.7076C114.55 62.6684 114.525 60.7145 114.39 58.6084C114.092 54.3583 113.453 50.356 112.775 46.3813C112.493 45.1932 112.692 43.9474 111.84 43.1725C111.264 42.7778 110.319 42.593 109.611 42.8159C107.701 43.62 107.451 45.1936 107.476 47.1476C107.553 48.7736 107.644 50.0994 107.721 51.7255C107.639 56.2511 108.026 58.4646 107.834 62.8381C107.729 63.4938 107.307 64.0315 107.065 64.497C106.092 66.594 100.578 76.1005 100.069 77.3975" stroke="#F59F80" stroke-width="2" stroke-miterlimit="10" stroke-linecap="round" stroke-linejoin="round"/>
<path d="M112.616 83.674C113.332 82.3429 113.637 81.484 114.084 80.5804C116.704 75.3177 118.944 70.3304 121.126 64.8631C122.289 62.6284 122.693 61.9871 123.856 59.7525C124.369 58.2208 125.56 55.3855 125.352 53.7384C125.225 52.8441 124.229 52.3485 123.479 52.8337C121.99 53.7387 120.194 57.4185 119.547 58.5254C117.23 61.8866 113.269 68.1788 111.018 71.5505" stroke="#F59F80" stroke-width="2" stroke-miterlimit="10" stroke-linecap="round" stroke-linejoin="round"/>
<path d="M121.434 64.4081C122.007 63.7602 123.334 63.031 124.161 64.1718C124.298 64.362 124.36 64.6072 124.356 64.8419C124.537 66.4509 123.371 68.2817 122.99 69.8344C122.587 71.5182 119.085 80.8423 117.117 83.4862C113.058 88.9221 110.14 92.2546 104.833 96.4487C102.874 97.9845 100.739 99.3576 98.7522 100.855C93.6968 105.157 88.9399 110.75 86.4217 117.273C86.4217 117.273 82.9773 134.676 88.2796 146.551C88.2796 146.551 60.2012 147.238 60.8444 146.365C61.46 145.455 62.8216 119.181 62.6773 111.223C62.6046 106.404 61.8315 101.338 62.7431 96.0375C64.3014 87.3102 65.9073 79.1285 68.5659 70.8797C68.8224 70.1139 69.0409 69.3756 69.2973 68.6097C71.3368 63.8257 72.1933 58.449 74.5711 53.6518C75.2076 52.6105 76.6708 52.7101 77.3322 53.6227C79.7357 57.739 78.6416 62.7078 78.2972 67.1914C78.1718 67.9783 78.0361 68.8307 77.9107 69.6175C77.3287 73.6933 76.9814 77.773 78.6778 81.4735C80.1091 84.7282 84.1578 84.6361 87.2685 83.8897C89.6961 83.0004 91.413 81.9302 92.3239 79.5881C94.3263 74.1929 93.1332 68.3876 89.8157 63.8898C88.9785 62.8146 88.0064 61.9531 87.0618 61.1296C86.5896 60.7179 86.0793 60.3337 85.569 59.9495C82.5177 57.5788 75.2287 54.7992 78.1472 50.8282C79.9418 48.4256 83.0882 51.8874 85.1569 53.4622C85.7223 53.9224 86.3532 54.3932 86.9566 54.8259C90.0392 56.9999 93.4952 58.7293 96.3982 60.9755C98.6249 65.5677 99.7257 70.6859 101.149 75.0487" stroke="#F59F80" stroke-width="2" stroke-miterlimit="10" stroke-linecap="round" stroke-linejoin="round"/>
<path d="M70.5836 39.4316C70.6236 40.4466 70.8223 41.5206 70.0309 42.2681C69.592 42.7022 68.7739 42.7731 68.4745 42.1201C68.2474 41.6467 68.4316 40.7012 68.4496 40.1661C68.4609 39.4619 68.2289 37.5421 69.161 37.3886C69.123 37.4161 70.5662 37.0082 70.5836 39.4316Z" stroke="#F59F80" stroke-width="2" stroke-miterlimit="10" stroke-linecap="round" stroke-linejoin="round"/>
<path d="M69.2408 47.0167C68.8837 48.2035 68.6577 49.4113 68.4317 50.6191C68.0908 52.5481 67.9912 54.6503 67.2294 56.4784C66.9558 57.1406 66.6271 57.7269 66.1502 58.1885C65.4348 58.881 64.2518 58.2883 64.3049 57.3218C64.3153 57.2562 64.2982 57.1527 64.3086 57.0871C64.3475 56.4209 64.3864 55.7547 64.4633 55.061C64.7111 53.0834 65.4216 50.9445 66.1283 49.0404C66.8455 47.0706 67.3546 45.7737 68.9821 44.4202C68.9821 44.4202 70.8823 43.0431 70.0549 44.8607C69.7433 45.5505 69.4593 46.2784 69.2408 47.0167Z" stroke="#F59F80" stroke-width="2" stroke-miterlimit="10" stroke-linecap="round" stroke-linejoin="round"/>
<path d="M65.9388 36.3017C65.6737 35.8559 65.4085 35.41 65.1434 34.9642C62.1879 30.726 60.603 21.2607 55.0011 23.9284C50.9669 26.0401 53.3403 34.354 55.4844 38.8321C55.7115 39.3055 56.0318 39.8274 56.3625 40.2838C56.6932 40.7401 57.1275 41.1794 57.6206 41.46C58.4759 42.0002 59.6313 42.5548 59.7091 41.2224C59.7651 40.6599 59.5864 40.0934 59.3317 39.5819C59.077 39.0705 58.7567 38.5486 58.5296 38.0752C57.7522 36.2027 55.6524 37.1444 54.4325 38.2605C54.08 38.5739 53.7171 38.9529 53.3817 39.37C52.3861 40.5555 51.6593 41.9522 51.1435 43.08C50.1983 45.215 49.4812 47.1847 49.471 49.5701C49.4683 51.486 49.8686 54.0379 51.1401 55.5524C53.7933 58.7336 59.8364 58.9941 62.8567 56.2833" stroke="#F59F80" stroke-width="2" stroke-miterlimit="10" stroke-linecap="round" stroke-linejoin="round"/>
<path d="M69.8932 34.48C69.602 30.399 68.5752 24.1832 63.8024 23.756C62.2289 23.5044 60.9284 25.5489 61.2678 27.2169" stroke="#F59F80" stroke-width="2" stroke-miterlimit="10" stroke-linecap="round" stroke-linejoin="round"/>
<path d="M70.1131 37.7426C71.064 36.4154 73.3376 34.5938 74.3266 33.239C74.8453 32.5151 75.8438 31.7335 76.2039 30.9506" stroke="#F59F80" stroke-width="2" stroke-miterlimit="10" stroke-linecap="round" stroke-linejoin="round"/>
<path d="M69.4783 37.5066C69.7317 34.017 70.8031 30.4566 71.5571 26.7781" stroke="#F59F80" stroke-width="2" stroke-miterlimit="10" stroke-linecap="round" stroke-linejoin="round"/>
</svg>
